<svg width="98" height="98" viewBox="0 0 98 98" fill="none" xmlns="http://www.w3.org/2000/svg">
<path d="M31.1806 39.9201V39.1584C31.1806 37.2276 32.727 35.6262 34.7201 35.4932L49.2376 34.5239L69.3141 64.0882V38.1405L64.1465 37.4517V37.0899C64.1465 35.1363 65.7283 33.5244 67.7468 33.421L80.9562 32.7444V34.6453C80.9562 35.5377 80.2926 36.301 79.3831 36.4548L76.2043 36.9924V79.0138L72.2149 80.3858C68.8821 81.532 65.1716 80.3051 63.2637 77.426L43.773 48.0144V76.0861L49.7722 77.2342L49.6886 77.7907C49.4268 79.5337 47.9219 80.852 46.1014 80.933L31.1806 81.5971C30.9833 79.7228 32.3881 78.0459 34.3261 77.8423L36.2888 77.6361V40.2072L31.1806 39.9201Z" fill="black"/>
<path fill-rule="evenodd" clip-rule="evenodd" d="M66.5311 0.125434L6.71324 4.20944C3.13019 4.45407 0.352768 7.33468 0.352768 10.8062V68.987C0.352768 72.2489 1.47559 75.418 3.54436 77.9952L16.442 94.0626C18.5273 96.6604 21.8089 98.0909 25.204 97.8819L91.5951 93.7951C94.9979 93.5856 97.6469 90.8572 97.6469 87.5619V21.416C97.6469 19.3772 96.6173 17.4668 94.8888 16.2981L73.872 2.0886C71.7301 0.640477 69.1385 -0.0525874 66.5311 0.125434ZM9.67949 11.7137C8.84752 11.0978 9.24347 9.81455 10.2886 9.73959L66.9334 5.67666C68.7382 5.54721 70.5316 6.0442 71.9912 7.07829L83.3565 15.1305C83.788 15.4362 83.5856 16.0961 83.0514 16.1252L23.0648 19.3876C21.2494 19.4863 19.4575 18.953 18.014 17.8844L9.67949 11.7137ZM20.2511 29.6152C20.2511 27.6664 21.8255 26.0566 23.8387 25.947L87.2617 22.493C89.2237 22.3861 90.8755 23.895 90.8755 25.7943V83.0697C90.8755 85.015 89.3066 86.6231 87.2974 86.7374L24.276 90.3232C22.0925 90.4475 20.2511 88.7696 20.2511 86.6556V29.6152Z" fill="black"/>
</svg>
